<svg xmlns="http://www.w3.org/2000/svg" width="35" height="35" viewBox="0 0 35 35"><defs><style>.a,.c,.g{fill:none;}.b,.d,.f{fill:#c1839f;}.c,.d{stroke:#c1839f;}.c{stroke-width:2px;}.e,.f{stroke:none;}</style></defs><g transform="translate(1744 -284)"><g class="a" transform="translate(-1744 284)"><path class="e" d="M17.5,0A17.5,17.5,0,1,1,0,17.5,17.5,17.5,0,0,1,17.5,0Z"/><path class="f" d="M 17.5 3 C 13.62690925598145 3 9.985639572143555 4.508260726928711 7.246950149536133 7.246950149536133 C 4.508260726928711 9.985639572143555 3 13.62690925598145 3 17.5 C 3 21.37308883666992 4.508260726928711 25.01436042785645 7.246950149536133 27.75304985046387 C 9.985639572143555 30.49174118041992 13.62690925598145 32 17.5 32 C 21.37308883666992 32 25.01436042785645 30.49174118041992 27.75304985046387 27.75304985046387 C 30.49174118041992 25.01436042785645 32 21.37308883666992 32 17.5 C 32 13.62690925598145 30.49174118041992 9.985639572143555 27.75304985046387 7.246950149536133 C 25.01436042785645 4.508260726928711 21.37308883666992 3 17.5 3 M 17.5 0 C 27.16497993469238 0 35 7.835020065307617 35 17.5 C 35 27.16497993469238 27.16497993469238 35 17.5 35 C 7.835020065307617 35 0 27.16497993469238 0 17.5 C 0 7.835020065307617 7.835020065307617 0 17.5 0 Z"/></g><rect class="b" width="1.282" height="5" transform="translate(-1727.335 284.855)"/><rect class="b" width="1.282" height="5" transform="translate(-1727.335 313.193)"/><rect class="b" width="1.129" height="5" transform="translate(-1738.425 301.124) rotate(90)"/><rect class="b" width="1.129" height="5" transform="translate(-1709.564 301.124) rotate(90)"/><line class="c" y1="9.409" x2="9.409" transform="translate(-1726.124 292.091)"/><line class="c" x2="4.892" y2="4.892" transform="translate(-1726.5 301.5)"/><g class="d" transform="translate(-1726.312 299.091) rotate(45)"><rect class="e" width="3" height="3"/><rect class="g" x="0.5" y="0.5" width="2" height="2"/></g></g></svg>