<svg xmlns="http://www.w3.org/2000/svg" width="56" height="38" viewBox="0 0 56 38"><defs><style>.a,.b{fill:#c1839f;}.a{stroke:#f5f5f5;}.c,.f{fill:#f5f5f5;}.d,.f{stroke:none;}.e{fill:none;}</style></defs><g transform="translate(-1283 -1474)"><g class="a" transform="translate(1283 1477)"><rect class="d" width="53" height="35"/><rect class="e" x="0.5" y="0.5" width="52" height="34"/></g><g class="b" transform="translate(1283 1484)"><path class="d" d="M 51.83835601806641 27.5 L 1.16164231300354 27.5 L 26.5 0.7273956537246704 L 51.83835601806641 27.5 Z"/><path class="f" d="M 26.5 1.454780578613281 L 2.323276519775391 27 L 50.67672729492188 27 L 26.5 1.454780578613281 M 26.5 0 L 53 28 L 0 28 L 26.5 0 Z"/></g><g class="b" transform="translate(1336 1505) rotate(180)"><path class="d" d="M 51.83835601806641 27.5 L 1.16164231300354 27.5 L 26.5 0.7273956537246704 L 51.83835601806641 27.5 Z"/><path class="f" d="M 26.5 1.454780578613281 L 2.323276519775391 27 L 50.67672729492188 27 L 26.5 1.454780578613281 M 26.5 0 L 53 28 L 0 28 L 26.5 0 Z"/></g><g transform="translate(-4.352)"><g class="a" transform="translate(1325.352 1474)"><circle class="d" cx="9" cy="9" r="9"/><circle class="e" cx="9" cy="9" r="8.5"/></g><g class="c" transform="translate(1339.352 1488) rotate(180)"><path class="d" d="M 9.097874641418457 7.5 L 0.9021250009536743 7.5 L 5 0.9434000253677368 L 9.097874641418457 7.5 Z"/><path class="f" d="M 5 1.886799812316895 L 1.80424976348877 7 L 8.19575023651123 7 L 5 1.886799812316895 M 5 0 L 10 8 L 0 8 L 5 0 Z"/></g><g class="c" transform="translate(1329.352 1477)"><path class="d" d="M 9.150241851806641 8.5 L 0.8497577905654907 8.5 L 5 1.029564023017883 L 9.150241851806641 8.5 Z"/><path class="f" d="M 5 2.059127807617188 L 1.699515342712402 8 L 8.300484657287598 8 L 5 2.059127807617188 M 5 0 L 10 9 L 0 9 L 5 0 Z"/></g></g></g></svg>