<svg xmlns="http://www.w3.org/2000/svg" width="169" height="72" viewBox="0 0 169 72"><defs><style>.a,.d{fill:none;}.a{stroke:#403d39;stroke-width:8px;}.b{fill:#403d39;}.c{stroke:none;}</style></defs><g transform="translate(1232 -114.244)"><g class="a" transform="translate(-1063 114.244) rotate(90)"><rect class="c" width="72" height="169"/><rect class="d" x="4" y="4" width="64" height="161"/></g><g transform="translate(-1231.825 133.932)"><path class="b" d="M393.6,217.746v-10.6h1.345v-4.035h8.219v-3.437h5.081v3.886h2.84v-3.886h2.989v-8.519h1.345v-1.943h3.288v1.943h1.345v7.472h1.2v6.352h2.69V193.546h1.793v-8.818h1.2V179.05h.9v-4.334h.9v-4.633h1.345v4.483h1.046v3.587h.9v6.875h1.2v8.967h1.345v12.853h2.242v-2.989h4.783v1.494h1.793V194.891h1.345v-3.736h4.185v3.587l.934.934v6.09h1.606v-1.943h4.185v2.092h2.541v1.943h2.69v-2.69h1.943v-5.753H473.7v5.753h1.942v-5.753h9.266v2.316h2.54v8.519h3.587v-7.323h12.1v3.886h1.793v4.932h1.2v2.989h5.231v-8.967h5.081v2.989h1.793v-2.989h5.978v5.38h1.2v3.587h2.84v-6.127h6.426v-1.494h1.345v-1.793h1.345v1.494h1.495v-1.793H542.3v1.644h1.495v4.782h2.84v-6.576h5.678v1.943H554.7v14.609Z" transform="translate(-393.598 -167.083)"/></g></g></svg>
