<svg xmlns="http://www.w3.org/2000/svg" viewBox="0 0 1914 573" width="1914" height="573">
	<style>
		tspan { white-space:pre }
		.shp0 { fill: #787878 } 
		.shp1 { fill: #3c3c3b } 
	</style>
	<g id="Layer" style="opacity: 0.149">
		<g id="Layer">
			<path id="Layer" class="shp0" d="M1308.1 434.83C1307.97 434.95 1308.11 435.05 1308.39 435.13C1308.31 434.86 1308.22 434.71 1308.1 434.83Z" />
			<path id="Layer" class="shp0" d="M2033.93 534.16L2040.57 534.32L2040.57 526.12L2033.93 526.37L2034.02 519.84L2027.75 519.7L2027.75 503.2L2023.8 502.9L2023.49 498.34L2013.01 495.91L2013.41 491.39L2019.24 491.51L2019.39 488.47L2023.34 487.1L2024.25 483.3L2027.9 482.25L2025.01 454.28C2025.01 454.28 2038.39 438.62 2037.93 438.62C2037.46 438.62 2029.87 428.9 2029.87 428.9L2022.42 434.98L2014.22 419.07L2006.92 419.07L2001.66 412.03L2005.92 407.33L2006.37 400.19L2014.12 399.12L2006.99 397L2014.12 392.74L2004.85 392.44L2010.17 386.2L2001.51 390.6L2000.75 382.7L1997.11 390.15L1994.68 390L1989.51 385.74L1992.08 393.18L1986.61 392.43L1986.61 386.9L1985.31 386.2L1984.79 365.98L1981.37 361.21L1981.45 360.21L1987.68 360.06L1987.68 354.43L1986.16 352.46L1981.6 352.16L1981.14 350.51L1986.16 349.88L1986.16 345.32L1984.49 342.68L1984.34 340.45L1982.51 338.33L1985.11 332.86L1985.11 328.9L1974.61 342.68L1974.61 348.36L1976.43 350.51L1976.89 351.85L1975.06 351.85L1973.24 354.29L1973.24 360.36L1975.97 361.88L1975.99 368.91L1979.48 368.91L1979.48 375.99L1973.85 401.63L1973.85 411.83L1977.07 414.51L1977.07 425.79L1979.8 431.62L1977.07 446.7L1977.07 452.61L1980.17 452.61L1980.69 455.44L1980.29 467.64L1982.71 467.64L1982.8 481.08L1980.29 490.71L1980.29 518.87L1975.06 518.76L1975.06 526.22L1967.69 526.13L1969.32 535.14L1975.54 535.1L1968.51 548.25C1968.51 548.25 1965.23 524.49 1938.2 509.75C1937.61 509.43 1937 509.11 1936.4 508.8C1935.79 508.5 1935.18 508.2 1934.57 507.91C1933.96 507.61 1933.34 507.33 1932.72 507.05C1932.1 506.78 1931.47 506.51 1930.85 506.25C1918.53 491.1 1895.22 493.91 1895.22 493.91L1895.22 481.79L1890.33 483.28C1888.88 478.12 1886.23 475.37 1883.89 473.9L1883.89 389.04L1853.47 389.04L1853.47 451.6L1851.39 451.6L1851.39 477.84L1850.2 479.03L1841.99 479.03L1841.99 237.16L1803.43 236.68L1803.43 431.47C1802.56 431.59 1801.69 431.76 1800.83 431.96C1799.98 432.16 1799.13 432.39 1798.29 432.66C1797.45 432.94 1796.63 433.25 1795.82 433.59C1795.01 433.93 1794.21 434.31 1793.43 434.72L1793.43 257.63L1765.1 229.31L1731.06 257.2L1731.49 409.34C1730.36 409.19 1729.22 409.12 1728.09 409.11C1726.95 409.1 1725.81 409.16 1724.68 409.29C1723.55 409.41 1722.43 409.6 1721.32 409.86C1720.22 410.12 1719.13 410.45 1718.06 410.84L1718.06 123.91L1699.02 123.68L1698.7 119.75L1713.55 119.86L1718.06 117.77L1718.06 114.49L1714.45 111.54L1698.37 111.21L1695.76 0L1692.97 111.24L1676.07 111.24L1672.46 113.83L1672.78 117.77L1676.72 119.75L1692.97 119.75L1692.97 122.89L1671.1 122.89L1671.1 398.73L1663.02 391.81L1649.92 406.55L1649.92 424.57L1645.82 424.57L1645.82 467.15L1641.72 467.15L1641.72 486.25L1632.95 486.25L1632.95 386.89L1623.7 386.89L1623.7 356.44L1605.92 356.44L1605.92 386.89L1603.61 386.89L1603.61 414.28L1575.85 414.28L1575.85 418.8C1572.07 418.75 1569.65 418.72 1569.65 418.72L1569.65 420.24L1567.23 420.24L1567.23 400.11L1562.17 400.11L1562.17 390.62L1527.07 390.62L1527.07 437.12L1514.25 437.12L1514.25 474.53L1507.88 474.53L1507.88 467.75L1497.04 467.75L1497.04 463.28L1491.93 463.28L1491.93 456.9L1485.55 456.9L1485.55 474.53L1481.21 474.53L1481.21 441.76L1472.2 386.89L1463.18 441.76L1463.18 472.89L1460.08 473.66L1460.08 375.12L1413.14 375.12L1413.14 395L1406.42 395L1406.42 434.83L1404.34 434.83L1400.94 418.72L1396.56 434.83L1384.72 434.83L1384.72 398.19L1375.78 398.19L1375.78 405.85L1350.26 405.85L1350.26 400.11L1338.14 400.11L1338.14 408.4L1329.2 408.4L1329.2 402.02L1319.63 402.02L1319.63 435.22C1314.94 435.4 1309.69 435.51 1308.39 435.13C1309.12 437.67 1308.1 455.33 1308.1 455.33L1301.02 455.33L1301.02 476.99L1295.28 476.99L1295.28 442.59L1288.73 430.3L1282.18 445.04L1282.18 469.62L1277.32 469.62L1277.32 379.23L1243.6 379.23L1243.6 393.72L1239.86 393.72L1239.86 424.8L1227.74 424.8L1227.74 380.96L1206.23 380.96L1206.23 345.72L1178.88 345.72L1178.88 363.1L1152.43 363.1L1152.43 431.94L1149.91 431.94L1149.91 460.2L1147.43 462.68L1147.43 246.6L1142.42 246.6L1142.42 211.05L1137.4 211.05L1137.4 196.01L1132.39 196.01L1132.39 190.09L1126.93 190.09L1126.93 181.88L1122.37 182.79L1122.37 178.69L1119.63 178.24C1119.63 178.24 1119.38 143.59 1119.63 137.22C1119.91 130.07 1112.42 129.39 1112.42 129.39L1112.42 111.24L1110.14 111.24L1110.14 129.24C1101.37 129.56 1100.94 136.3 1100.94 136.3L1100.94 181.88L1094.11 181.88L1094.11 189.17L1088.64 189.17L1088.64 196.46L1083.17 196.92L1083.17 209.67L1079.07 210.13L1079.07 246.14L1076.34 246.14L1076.34 427.37L1072.12 430.73L1072.12 434.41L1071.7 434.4L1071.7 444.78L1065.78 444.78L1065.78 342.68L1037.84 342.68L1037.84 452.44L1036.64 452.44L1023.53 439.34L1023.53 350.34L1015.24 350.34L1015.24 342.69L993.4 342.69L993.4 291.12L974.03 291.12L974.03 397.53L955.95 397.53L955.95 307.63L932.46 307.63L932.46 444.78L926.54 444.78L926.54 436.48L916.9 436.95L916.9 425.39L916.33 425.39L916.33 417.98L907.39 417.98L907.39 411.59L904.53 411.59L904.53 350.79L872.15 350.79L872.15 406.49L865.8 406.49L865.8 350.8L836.74 350.8L836.74 396.92L827.62 396.92L827.62 415.83L824.35 413.92L820.25 418.72L820.25 426.2L816.15 427.03L816.15 467.92L809.72 467.92L809.72 338.34L806.96 335.58L806.96 321.34L801.41 315.79L801.41 283.18L793.62 275.69L793.62 265.51L792.42 264.01L792.42 255.63L790.32 253.83L790.32 243.06L787.32 242.46L787.32 231.68L786.13 230.78L786.13 223.9L784.33 222.4L784.33 216.11L781.94 211.02L781.87 162.48L781.87 163.38L780.74 211.02L779.24 211.02L779.24 220L774.9 229.28L774.9 237.22L770.26 241.86L770.26 252.04L767.19 252.04L767.19 263.04L765.01 265.21L765.01 274.04L763.37 275.69L763.37 284.97L761.6 284.97L761.6 316.79L757.16 316.79L757.16 324.93L751.99 324.93L751.99 462.25L745.71 462.25L745.71 454.87L742.1 454.87L742.1 386.89L683.5 386.89L683.5 473.02C678.92 473.3 674.46 473.27 674.46 472.07L674.46 484.98L671.9 487.54L671.9 444.78L655.33 444.78L655.33 489.27L647.03 489.27L647.03 433.93L608.1 433.93L608.1 509.58L598.21 509.58L598.21 470.62L559.8 470.62L559.8 572.13L2056.16 571.17C2056.45 541.68 2033.93 534.16 2033.93 534.16Z" />
		</g>
		<path id="Layer" class="shp1" d="M0 571.92L0.23 474.59L9.8 474.59L9.8 445.91L68.22 445.91L68.22 421.47L104.34 421.47L104.34 449.09L124.53 449.09L124.53 421.47L145.77 421.47L145.77 360.92L155.34 360.92L155.34 347.11L178.71 347.11L178.71 360.92L188.27 360.92L188.27 414.03L196.77 414.03L196.77 459.19L215.89 459.19L215.89 377.92L228.64 377.92L228.64 315.24L237.14 315.24L237.14 274.87L243.51 274.87L243.51 244.06L249.88 244.06L249.88 211.13L259.44 211.13L259.44 243L266.88 243L266.88 268.5L273.26 268.5L273.26 317.37L281.76 317.37L281.76 381.11L291.32 381.11L291.32 472.47L307.25 472.47L307.25 451.22L341.25 451.22L341.25 461.84L353.99 461.84L353.99 387.48L363.55 387.48L363.55 360.92L393.29 360.92L393.29 386.42L399.94 393.05L399.94 436.34L411.35 436.34L411.35 422.53L441.1 422.53L441.1 437.41L459.16 437.41L459.16 451.22L478.28 451.22L478.28 432.09L492.09 432.09L492.09 391.19L569.64 391.19L569.64 432.09L583.45 432.09L583.45 391.19L649.31 391.19L649.31 407.66L667.37 407.66L667.37 468.21L692.87 468.21L692.87 416.16L778.91 416.16L778.91 443.78L791.66 443.78L791.66 478.83L800.16 478.83L800.16 500.08L837.34 500.08L837.34 436.35L873.46 436.35L873.46 457.59L886.21 457.59L886.21 436.35L928.7 436.35L928.7 474.59L937.2 474.59L937.2 500.08L957.39 500.08L957.39 456.53L1003.07 456.53L1003.07 445.91L1012.63 445.91L1012.63 433.16L1022.19 433.16L1022.19 443.78L1032.81 443.78L1032.81 431.03L1057.24 431.03L1057.24 442.72L1067.87 442.72L1067.87 476.71L1088.05 476.71L1088.05 429.97L1128.42 429.97L1128.42 443.78L1145.42 443.78L1145.42 385.35L1158.17 361.98L1158.17 336.48L1163.48 336.48L1163.48 363.04L1178.35 384.29L1178.35 476.71L1196.41 476.71L1196.41 301.43L1250.59 301.43L1250.59 463.97L1261.21 463.97L1261.21 436.35L1284.58 436.35L1284.58 453.35L1333.45 453.35L1333.45 474.59L1371.69 474.59L1371.69 441.65L1391.88 441.65L1391.88 460.77L1406.75 460.77L1406.75 449.09L1428 449.09L1428 435.28L1453.49 435.28L1453.49 471.4L1472.61 471.4L1472.61 401.29L1485.36 384.29L1503.42 402.35L1503.42 434.21L1524.67 434.21L1524.67 462.9L1551.23 462.9L1551.23 431.03L1569.28 431.03L1569.28 417.22L1593.72 417.22L1593.72 426.78L1610.72 426.78L1610.72 411.91L1673.39 411.91L1673.39 461.84L1678.7 461.84L1678.7 451.22L1703.14 451.22L1703.14 511.77L1721.19 511.77L1721.19 491.59L1728.63 491.59L1728.63 427.85L1753.07 427.85L1753.07 518.15L1765.82 518.15L1765.82 536.21L1791.31 536.21L1791.31 521.33L1844.43 521.33L1844.43 420.41L1885.86 420.41L1885.86 523.45L1970.84 523.45L1970.72 571.95L0 571.92Z" />
	</g>
</svg>