<svg xmlns="http://www.w3.org/2000/svg" width="2056.159" height="572.133" viewBox="0 0 2056.159 572.133"><defs><style>.a{opacity:0.15;}.b{fill:#787878;}.c{fill:#3c3c3b;}</style></defs><g class="a" transform="translate(-0.196 -486.867)"><g transform="translate(499.735 -102.963)"><path class="b" d="M189.765,665.094c-.127.127.017.225.295.3C189.978,665.128,189.886,664.972,189.765,665.094Z" transform="translate(618.792 359.564)"/><path class="b" d="M1534.388,1123.994l6.641.156v-8.2l-6.641.248.092-6.531-6.271-.133v-16.5l-3.948-.3-.307-4.56-10.485-2.433.4-4.52,5.832.116.15-3.04,3.948-1.37.907-3.8,3.653-1.052-2.89-27.964s13.381-15.658,12.918-15.658-8.057-9.722-8.057-9.722l-7.451,6.08-8.2-15.912h-7.295l-5.266-7.04,4.26-4.7.457-7.144,7.745-1.069-7.133-2.121,7.133-4.26-9.265-.3,5.318-6.231-8.664,4.4-.757-7.9-3.641,7.445-2.434-.15-5.167-4.26,2.572,7.445-5.468-.751v-5.538l-1.3-.7-.526-20.213-3.416-4.769.081-1.006,6.225-.144v-5.63l-1.515-1.971-4.566-.307-.451-1.641,5.017-.635v-4.561l-1.676-2.641-.15-2.226-1.821-2.121,2.6-5.468v-3.96l-10.508,13.774v5.687l1.821,2.15.462,1.341h-1.826l-1.827,2.433v6.075l2.734,1.521.023,7.022h3.491v7.081l-5.63,25.646v10.2l3.214,2.682v11.272l2.728,5.837-2.728,15.08v5.908h3.1l.526,2.826-.4,12.2h2.416l.093,13.444-2.509,9.63v28.155l-5.237-.11v7.462l-7.37-.087,1.636,9.005,6.219-.035-7.034,13.15s-3.277-23.762-30.305-38.5a78.238,78.238,0,0,0-7.358-3.5c-12.317-15.149-35.628-12.34-35.628-12.34v-12.121l-4.884,1.491c-1.451-5.161-4.1-7.913-6.445-9.381V978.874h-30.414v62.552h-2.087v26.247l-1.185,1.191h-8.208V826.992l-38.564-.48V1021.3a30.6,30.6,0,0,0-10,3.254V847.464l-28.334-28.328-34.039,27.889.428,152.143a28.657,28.657,0,0,0-13.427,1.5V713.738l-19.034-.226-.329-3.936,14.855.11,4.509-2.086v-3.278l-3.613-2.953-16.074-.33L1196.22,589.83l-2.786,111.237h-16.9l-3.612,2.595.324,3.936,3.936,1.977h16.248v3.15h-21.872V988.562l-8.075-6.925-13.1,14.745V1014.4h-4.1v42.581h-4.1v19.1h-8.768V976.724h-9.254V946.269H1106.38v30.455h-2.312v27.386h-27.762v4.52c-3.774-.046-6.191-.081-6.191-.081v1.526h-2.428V989.937h-5.052v-9.491h-35.1v46.5h-12.82v37.414h-6.375v-6.78H997.5v-4.474h-5.109v-6.376H986.01v17.629H981.67v-32.767l-9.011-54.87-9.017,54.87v31.132l-3.1.769V964.95H913.6v19.883h-6.722v39.825H904.8l-3.4-16.109-4.376,16.109H885.177V988.024h-8.936v7.653H850.717v-5.739H838.6v8.294H829.66V991.85h-9.566v33.195c-4.693.185-9.942.295-11.242-.086.728,2.543-.295,20.2-.295,20.2h-7.075v21.658h-5.74v-34.4l-6.549-12.288-6.555,14.745v24.577h-4.855V969.06H744.057v14.491h-3.734v31.079H728.2V970.788H706.689V935.547H679.338v17.38H652.894v68.841h-2.52v28.258l-2.48,2.48V836.431h-5.017V800.883h-5.011v-15.04h-5.011v-5.924h-5.468v-8.208l-4.56.913v-4.1l-2.734-.457s-.254-34.646,0-41.021c.278-7.144-7.213-7.826-7.213-7.826V701.068H610.6v18c-8.774.324-9.2,7.063-9.2,7.063v45.576h-6.832v7.295H589.1v7.289l-5.468.456v12.757l-4.1.457v36.01h-2.734V1017.2l-4.214,3.364v3.676l-.422-.011v10.381h-5.925v-102.1H538.3v109.757h-1.2l-13.109-13.1v-89H515.7v-7.652H493.862V880.948H474.493V987.365H456.407v-89.9H432.923v137.143H427v-8.295l-9.635.463v-11.554h-.578v-7.41h-8.936v-6.387h-2.861v-60.8h-32.38v55.691h-6.346V940.627H337.2v46.12h-9.121v18.918l-3.271-1.913-4.1,4.8v7.48l-4.092.827v40.894h-6.433V928.171l-2.763-2.763V911.167l-5.549-5.549V873.007l-7.792-7.485V855.343l-1.2-1.5v-8.381l-2.1-1.8V832.887l-2.994-.6V821.512l-1.191-.9v-6.884l-1.8-1.5V805.94l-2.393-5.086-.075-48.547v.9l-1.127,47.645h-1.5v8.977l-4.341,9.282v7.936l-4.641,4.642v10.178h-3.069v11l-2.173,2.173v8.832l-1.642,1.647V874.8h-1.769v31.82h-4.439v8.138h-5.179v137.323h-6.277V1044.7h-3.613V976.724h-58.6v86.123c-4.578.283-9.04.249-9.04-.942v12.907l-2.555,2.554v-42.76H155.786V1079.1h-8.294v-55.338H108.563v75.65h-9.89v-38.964H60.265v101.515L1556.618,1161C1556.907,1131.508,1534.388,1123.994,1534.388,1123.994Z" transform="translate(0 0)"/></g><path class="c" d="M393.364,530.875l.233-97.338h9.563V404.855h58.425V380.422h36.12v27.62h20.186v-27.62h21.244V319.868H548.7V306.06h23.372v13.809h9.561v53.115h8.5v45.151h19.121V336.867H622V274.188h8.5V233.821h6.374V203.013h6.374v-32.93h9.56v31.868h7.438v25.5h6.374v48.867h8.5v63.74h9.56v91.36h15.935V410.167h34v10.622H747.35V346.427h9.561V319.868h29.746v25.5L793.3,352v43.29h11.419V381.483H834.46v14.873h18.063v13.811h19.122V391.043h13.811v-40.9H963v40.9H976.81v-40.9h65.865V366.61h18.057v60.553h25.5V375.109h86.045v27.62h12.747v35.055h8.5v21.247h37.183V395.295h36.12v21.247h12.747V395.295h42.493v38.242h8.5v25.495h20.186V415.477h45.68V404.855h9.56V392.108h9.561V402.73h10.624V389.982h24.431v11.686h10.625v33.994h20.185V388.921h40.365V402.73h17V344.3l12.748-23.369v-25.5h5.31v26.559l14.876,21.246v92.422h18.057V260.38h54.182V422.915h10.62v-27.62h23.372v17h48.867v21.247h38.242V400.6h20.185v19.124h14.87V408.042h21.25V394.23h25.495v36.12h19.121V360.236l12.747-17,18.063,18.06v31.869h21.244v28.682h26.559V389.982h18.057V376.171h24.436v9.563h17V370.861h62.672v49.929h5.31V410.167H2096.5v60.551h18.057V450.535h7.438V386.8h24.436v90.3h12.748v18.06h25.495V480.278h53.118V379.36h41.429V482.4H2364.2l-.118,48.5Z" transform="translate(-393.168 527.917)"/></g></svg>